<svg width="17" height="17" viewBox="0 0 17 17" fill="none" xmlns="http://www.w3.org/2000/svg">
<g clip-path="url(#clip0_74_672)">
<path d="M8.5 17C10.1811 17 11.8245 16.5015 13.2223 15.5675C14.6202 14.6335 15.7096 13.306 16.353 11.7528C16.9963 10.1996 17.1646 8.49057 16.8367 6.84174C16.5087 5.1929 15.6992 3.67834 14.5104 2.4896C13.3217 1.30085 11.8071 0.491303 10.1583 0.163329C8.50943 -0.164645 6.80036 0.00368293 5.24719 0.647028C3.69402 1.29037 2.3665 2.37984 1.43251 3.77766C0.498516 5.17547 0 6.81886 0 8.5C0.00243743 10.7536 0.898753 12.9142 2.49228 14.5077C4.08582 16.1013 6.24641 16.9976 8.5 17ZM8.5 3.54167C8.71014 3.54167 8.91557 3.60398 9.09029 3.72073C9.26502 3.83748 9.4012 4.00342 9.48162 4.19757C9.56204 4.39172 9.58308 4.60535 9.54208 4.81145C9.50109 5.01756 9.39989 5.20688 9.2513 5.35547C9.10271 5.50406 8.91339 5.60526 8.70728 5.64625C8.50118 5.68725 8.28755 5.66621 8.0934 5.58579C7.89925 5.50537 7.73331 5.36919 7.61656 5.19446C7.49981 5.01974 7.4375 4.81431 7.4375 4.60417C7.4375 4.32238 7.54944 4.05213 7.7487 3.85287C7.94796 3.65361 8.21821 3.54167 8.5 3.54167ZM7.79167 7.08334H8.5C8.87572 7.08334 9.23606 7.23259 9.50173 7.49827C9.76741 7.76395 9.91667 8.12428 9.91667 8.5V12.75C9.91667 12.9379 9.84204 13.118 9.7092 13.2509C9.57636 13.3837 9.3962 13.4583 9.20833 13.4583C9.02047 13.4583 8.84031 13.3837 8.70747 13.2509C8.57463 13.118 8.5 12.9379 8.5 12.75V8.5H7.79167C7.60381 8.5 7.42364 8.42538 7.2908 8.29254C7.15796 8.1597 7.08333 7.97953 7.08333 7.79167C7.08333 7.60381 7.15796 7.42364 7.2908 7.2908C7.42364 7.15797 7.60381 7.08334 7.79167 7.08334Z" fill="#374957"/>
</g>
<defs>
<clipPath id="clip0_74_672">
<rect width="17" height="17" fill="white"/>
</clipPath>
</defs>
</svg>
