<svg width="31" height="15" viewBox="0 0 31 15" fill="none" xmlns="http://www.w3.org/2000/svg">
<rect width="31" height="15" rx="2" fill="#EBF5FF"/>
<path d="M3.13619 12V3.27273H6.4771C7.10778 3.27273 7.63192 3.37216 8.04954 3.57102C8.46999 3.76705 8.78391 4.03551 8.9913 4.37642C9.20153 4.71733 9.30664 5.10369 9.30664 5.53551C9.30664 5.89062 9.23846 6.1946 9.1021 6.44744C8.96573 6.69744 8.78249 6.90057 8.55238 7.05682C8.32227 7.21307 8.06516 7.32528 7.78107 7.39347V7.47869C8.09073 7.49574 8.38761 7.59091 8.6717 7.7642C8.95863 7.93466 9.193 8.17614 9.37482 8.48864C9.55664 8.80114 9.64755 9.17898 9.64755 9.62216C9.64755 10.0739 9.53818 10.4801 9.31943 10.8409C9.10068 11.1989 8.77113 11.4815 8.33079 11.6889C7.89045 11.8963 7.33647 12 6.66886 12H3.13619ZM4.71715 10.679H6.41744C6.9913 10.679 7.40465 10.5696 7.65749 10.3509C7.91317 10.1293 8.04102 9.84517 8.04102 9.49858C8.04102 9.24006 7.9771 9.0071 7.84925 8.79972C7.72141 8.58949 7.5396 8.42472 7.3038 8.3054C7.068 8.18324 6.78675 8.12216 6.46005 8.12216H4.71715V10.679ZM4.71715 6.98438H6.28107C6.5538 6.98438 6.79954 6.93466 7.01829 6.83523C7.23704 6.73295 7.40891 6.58949 7.53391 6.40483C7.66175 6.21733 7.72567 5.99574 7.72567 5.74006C7.72567 5.40199 7.60636 5.12358 7.36772 4.90483C7.13192 4.68608 6.78107 4.5767 6.31516 4.5767H4.71715V6.98438ZM13.8525 12.1278C13.1962 12.1278 12.6294 11.9915 12.1522 11.7188C11.6777 11.4432 11.3127 11.054 11.057 10.5511C10.8013 10.0455 10.6735 9.45028 10.6735 8.76562C10.6735 8.09233 10.8013 7.50142 11.057 6.9929C11.3155 6.48153 11.6763 6.08381 12.1394 5.79972C12.6025 5.51278 13.1465 5.36932 13.7715 5.36932C14.1749 5.36932 14.5556 5.43466 14.9135 5.56534C15.2743 5.69318 15.5925 5.89205 15.8681 6.16193C16.1465 6.43182 16.3652 6.77557 16.5243 7.19318C16.6834 7.60795 16.763 8.10227 16.763 8.67614V9.14915H11.3979V8.10938H15.2843C15.2814 7.81392 15.2175 7.55114 15.0925 7.32102C14.9675 7.08807 14.7928 6.90483 14.5684 6.77131C14.3468 6.63778 14.0882 6.57102 13.7928 6.57102C13.4775 6.57102 13.2005 6.64773 12.9618 6.80114C12.7232 6.9517 12.5371 7.15057 12.4036 7.39773C12.2729 7.64205 12.2061 7.91051 12.2033 8.20312V9.1108C12.2033 9.49148 12.2729 9.81818 12.4121 10.0909C12.5513 10.3608 12.7459 10.5682 12.9959 10.7131C13.2459 10.8551 13.5385 10.9261 13.8738 10.9261C14.0982 10.9261 14.3013 10.8949 14.4831 10.8324C14.665 10.767 14.8226 10.6719 14.9561 10.5469C15.0897 10.4219 15.1905 10.267 15.2587 10.0824L16.699 10.2443C16.6081 10.625 16.4348 10.9574 16.1792 11.2415C15.9263 11.5227 15.6025 11.7415 15.2076 11.8977C14.8127 12.0511 14.361 12.1278 13.8525 12.1278ZM21.3365 5.45455V6.64773H17.5737V5.45455H21.3365ZM18.5027 3.88636H20.0453V10.0312C20.0453 10.2386 20.0765 10.3977 20.139 10.5085C20.2044 10.6165 20.2896 10.6903 20.3947 10.7301C20.4998 10.7699 20.6163 10.7898 20.7441 10.7898C20.8407 10.7898 20.9288 10.7827 21.0083 10.7685C21.0907 10.7543 21.1532 10.7415 21.1958 10.7301L21.4558 11.9361C21.3734 11.9645 21.2555 11.9957 21.1021 12.0298C20.9515 12.0639 20.7669 12.0838 20.5481 12.0895C20.1618 12.1009 19.8137 12.0426 19.5041 11.9148C19.1944 11.7841 18.9487 11.5824 18.7669 11.3097C18.5879 11.0369 18.4998 10.696 18.5027 10.2869V3.88636ZM24.5101 12.1321C24.0953 12.1321 23.7218 12.0582 23.3894 11.9105C23.0598 11.7599 22.7985 11.5384 22.6053 11.2457C22.415 10.9531 22.3198 10.5923 22.3198 10.1634C22.3198 9.79403 22.388 9.48864 22.5243 9.24716C22.6607 9.00568 22.8468 8.8125 23.0826 8.66761C23.3184 8.52273 23.584 8.41335 23.8794 8.33949C24.1777 8.26278 24.486 8.20739 24.8042 8.1733C25.1877 8.13352 25.4988 8.09801 25.7374 8.06676C25.976 8.03267 26.1493 7.98153 26.2573 7.91335C26.3681 7.84233 26.4235 7.73295 26.4235 7.58523V7.55966C26.4235 7.23864 26.3283 6.99006 26.138 6.81392C25.9476 6.63778 25.6735 6.54972 25.3155 6.54972C24.9377 6.54972 24.638 6.6321 24.4164 6.79688C24.1976 6.96165 24.0499 7.15625 23.9732 7.38068L22.5328 7.17614C22.6465 6.77841 22.834 6.44602 23.0953 6.17898C23.3567 5.90909 23.6763 5.70739 24.0542 5.57386C24.432 5.4375 24.8496 5.36932 25.307 5.36932C25.6223 5.36932 25.9363 5.40625 26.2488 5.48011C26.5613 5.55398 26.8468 5.67614 27.1053 5.84659C27.3638 6.0142 27.5712 6.2429 27.7275 6.53267C27.8865 6.82244 27.9661 7.18466 27.9661 7.61932V12H26.4831V11.1009H26.432C26.3382 11.2827 26.2061 11.4531 26.0357 11.6122C25.8681 11.7685 25.6564 11.8949 25.4007 11.9915C25.1479 12.0852 24.851 12.1321 24.5101 12.1321ZM24.9107 10.9986C25.2203 10.9986 25.4888 10.9375 25.7161 10.8153C25.9434 10.6903 26.1181 10.5256 26.2402 10.321C26.3652 10.1165 26.4277 9.89347 26.4277 9.65199V8.88068C26.3794 8.92045 26.2971 8.95739 26.1806 8.99148C26.0669 9.02557 25.9391 9.0554 25.7971 9.08097C25.655 9.10653 25.5144 9.12926 25.3752 9.14915C25.236 9.16903 25.1152 9.18608 25.013 9.20028C24.7828 9.23153 24.5769 9.28267 24.3951 9.35369C24.2132 9.42472 24.0698 9.52415 23.9647 9.65199C23.8596 9.77699 23.807 9.93892 23.807 10.1378C23.807 10.4219 23.9107 10.6364 24.1181 10.7812C24.3255 10.9261 24.5897 10.9986 24.9107 10.9986Z" fill="#0078FF"/>
</svg>
